<mxfile host="app.diagrams.net" modified="2023-11-22T08:06:10.603Z" agent="Mozilla/5.0 (Windows NT 10.0; Win64; x64) AppleWebKit/537.36 (KHTML, like Gecko) Chrome/118.0.0.0 Safari/537.36 Edg/118.0.2088.61" etag="B7iAtxTNjzCyl1EB-opq" version="22.1.3" type="device">
  <diagram name="Страница — 1" id="QyTtew7KdF7MnKeZE8AW">
    <mxGraphModel dx="1002" dy="903" grid="1" gridSize="10" guides="1" tooltips="1" connect="1" arrows="1" fold="1" page="1" pageScale="1" pageWidth="827" pageHeight="1169" math="0" shadow="0">
      <root>
        <mxCell id="0" />
        <mxCell id="1" parent="0" />
        <mxCell id="-7mRF8qXslL9lOyEyZfl-12" value="" style="edgeStyle=orthogonalEdgeStyle;rounded=0;orthogonalLoop=1;jettySize=auto;html=1;" edge="1" parent="1" source="-7mRF8qXslL9lOyEyZfl-1" target="-7mRF8qXslL9lOyEyZfl-3">
          <mxGeometry relative="1" as="geometry" />
        </mxCell>
        <mxCell id="-7mRF8qXslL9lOyEyZfl-1" value="modify_final_array" style="rounded=1;whiteSpace=wrap;html=1;" vertex="1" parent="1">
          <mxGeometry x="330" y="60" width="120" height="60" as="geometry" />
        </mxCell>
        <mxCell id="-7mRF8qXslL9lOyEyZfl-2" value="END" style="rounded=1;whiteSpace=wrap;html=1;" vertex="1" parent="1">
          <mxGeometry x="120" y="570" width="120" height="60" as="geometry" />
        </mxCell>
        <mxCell id="-7mRF8qXslL9lOyEyZfl-11" value="" style="edgeStyle=orthogonalEdgeStyle;rounded=0;orthogonalLoop=1;jettySize=auto;html=1;" edge="1" parent="1" source="-7mRF8qXslL9lOyEyZfl-3">
          <mxGeometry relative="1" as="geometry">
            <mxPoint x="390" y="280" as="targetPoint" />
          </mxGeometry>
        </mxCell>
        <mxCell id="-7mRF8qXslL9lOyEyZfl-3" value="string[] start_array&lt;br&gt;string[] final_array" style="shape=parallelogram;perimeter=parallelogramPerimeter;whiteSpace=wrap;html=1;fixedSize=1;" vertex="1" parent="1">
          <mxGeometry x="290" y="170" width="200" height="60" as="geometry" />
        </mxCell>
        <mxCell id="-7mRF8qXslL9lOyEyZfl-19" value="" style="edgeStyle=orthogonalEdgeStyle;rounded=0;orthogonalLoop=1;jettySize=auto;html=1;" edge="1" parent="1" source="-7mRF8qXslL9lOyEyZfl-17" target="-7mRF8qXslL9lOyEyZfl-18">
          <mxGeometry relative="1" as="geometry" />
        </mxCell>
        <mxCell id="-7mRF8qXslL9lOyEyZfl-17" value="index = 0" style="rounded=0;whiteSpace=wrap;html=1;" vertex="1" parent="1">
          <mxGeometry x="330" y="280" width="120" height="60" as="geometry" />
        </mxCell>
        <mxCell id="-7mRF8qXslL9lOyEyZfl-21" value="TRUE" style="edgeStyle=orthogonalEdgeStyle;rounded=0;orthogonalLoop=1;jettySize=auto;html=1;" edge="1" parent="1" source="-7mRF8qXslL9lOyEyZfl-18" target="-7mRF8qXslL9lOyEyZfl-20">
          <mxGeometry relative="1" as="geometry" />
        </mxCell>
        <mxCell id="-7mRF8qXslL9lOyEyZfl-28" style="edgeStyle=orthogonalEdgeStyle;rounded=0;orthogonalLoop=1;jettySize=auto;html=1;" edge="1" parent="1" source="-7mRF8qXslL9lOyEyZfl-18" target="-7mRF8qXslL9lOyEyZfl-2">
          <mxGeometry relative="1" as="geometry" />
        </mxCell>
        <mxCell id="-7mRF8qXslL9lOyEyZfl-29" value="FALSE" style="edgeLabel;html=1;align=center;verticalAlign=middle;resizable=0;points=[];" vertex="1" connectable="0" parent="-7mRF8qXslL9lOyEyZfl-28">
          <mxGeometry x="-0.024" y="1" relative="1" as="geometry">
            <mxPoint as="offset" />
          </mxGeometry>
        </mxCell>
        <mxCell id="-7mRF8qXslL9lOyEyZfl-18" value="index &amp;lt; start_array.Length" style="rhombus;whiteSpace=wrap;html=1;rounded=0;" vertex="1" parent="1">
          <mxGeometry x="310" y="410" width="160" height="80" as="geometry" />
        </mxCell>
        <mxCell id="-7mRF8qXslL9lOyEyZfl-23" value="TRUE" style="edgeStyle=orthogonalEdgeStyle;rounded=0;orthogonalLoop=1;jettySize=auto;html=1;" edge="1" parent="1" source="-7mRF8qXslL9lOyEyZfl-20" target="-7mRF8qXslL9lOyEyZfl-22">
          <mxGeometry relative="1" as="geometry" />
        </mxCell>
        <mxCell id="-7mRF8qXslL9lOyEyZfl-24" value="FALSE" style="edgeStyle=orthogonalEdgeStyle;rounded=0;orthogonalLoop=1;jettySize=auto;html=1;" edge="1" parent="1" source="-7mRF8qXslL9lOyEyZfl-20">
          <mxGeometry relative="1" as="geometry">
            <mxPoint x="390" y="370" as="targetPoint" />
            <Array as="points">
              <mxPoint x="670" y="370" />
            </Array>
          </mxGeometry>
        </mxCell>
        <mxCell id="-7mRF8qXslL9lOyEyZfl-20" value="start_array[index].Length &amp;lt;= 3" style="rhombus;whiteSpace=wrap;html=1;rounded=0;" vertex="1" parent="1">
          <mxGeometry x="550" y="410" width="240" height="80" as="geometry" />
        </mxCell>
        <mxCell id="-7mRF8qXslL9lOyEyZfl-26" value="" style="edgeStyle=orthogonalEdgeStyle;rounded=0;orthogonalLoop=1;jettySize=auto;html=1;" edge="1" parent="1" source="-7mRF8qXslL9lOyEyZfl-22" target="-7mRF8qXslL9lOyEyZfl-25">
          <mxGeometry relative="1" as="geometry" />
        </mxCell>
        <mxCell id="-7mRF8qXslL9lOyEyZfl-22" value="final_array[index] = start_array[index]" style="whiteSpace=wrap;html=1;rounded=0;" vertex="1" parent="1">
          <mxGeometry x="610" y="580" width="120" height="60" as="geometry" />
        </mxCell>
        <mxCell id="-7mRF8qXslL9lOyEyZfl-27" style="edgeStyle=orthogonalEdgeStyle;rounded=0;orthogonalLoop=1;jettySize=auto;html=1;entryX=0.5;entryY=1;entryDx=0;entryDy=0;" edge="1" parent="1" source="-7mRF8qXslL9lOyEyZfl-25" target="-7mRF8qXslL9lOyEyZfl-18">
          <mxGeometry relative="1" as="geometry" />
        </mxCell>
        <mxCell id="-7mRF8qXslL9lOyEyZfl-25" value="index += 1" style="whiteSpace=wrap;html=1;rounded=0;" vertex="1" parent="1">
          <mxGeometry x="330" y="580" width="120" height="60" as="geometry" />
        </mxCell>
      </root>
    </mxGraphModel>
  </diagram>
</mxfile>
